<svg aria-hidden="true" style="position: absolute; width: 0; height: 0; overflow: hidden;" version="1.1" xmlns="http://www.w3.org/2000/svg" xmlns:xlink="http://www.w3.org/1999/xlink">
<defs>
<symbol id="arrow" viewBox="0 0 20 20">
<path d="M4.516 7.548c0.436-0.446 1.043-0.481 1.576 0l3.908 3.747 3.908-3.747c0.533-0.481 1.141-0.446 1.574 0 0.436 0.445 0.408 1.197 0 1.615-0.406 0.418-4.695 4.502-4.695 4.502-0.217 0.223-0.502 0.335-0.787 0.335s-0.57-0.112-0.789-0.335c0 0-4.287-4.084-4.695-4.502s-0.436-1.17 0-1.615z"></path>
</symbol>
<symbol id="basket" viewBox="0 0 32 32">
<path  d="M0.889 2.222c0-0.354 0.14-0.693 0.391-0.943s0.589-0.391 0.943-0.391h0.992c1.689 0 2.702 1.136 3.28 2.192 0.386 0.704 0.665 1.52 0.884 2.26 0.059-0.005 0.118-0.007 0.178-0.007h22.219c1.476 0 2.542 1.412 2.137 2.832l-3.25 11.394c-0.291 1.022-0.908 1.921-1.756 2.561s-1.882 0.987-2.945 0.987h-10.574c-1.071 0-2.113-0.352-2.964-1.001s-1.467-1.561-1.75-2.594l-1.351-4.928-2.24-7.552-0.002-0.014c-0.277-1.008-0.537-1.952-0.924-2.656-0.372-0.684-0.67-0.807-0.939-0.807h-0.994c-0.354 0-0.693-0.14-0.943-0.391s-0.391-0.589-0.391-0.943zM9.908 13.938l1.335 4.869c0.267 0.964 1.143 1.634 2.144 1.634h10.574c0.483 0 0.953-0.157 1.338-0.448s0.666-0.7 0.798-1.164l3.088-10.828h-21.035l1.732 5.844 0.025 0.094z"></path>
<path  d="M16 28.444c0 0.943-0.375 1.847-1.041 2.514s-1.571 1.041-2.514 1.041c-0.943 0-1.847-0.375-2.514-1.041s-1.041-1.571-1.041-2.514c0-0.943 0.375-1.847 1.041-2.514s1.571-1.041 2.514-1.041c0.943 0 1.847 0.375 2.514 1.041s1.041 1.571 1.041 2.514zM13.333 28.444c0-0.236-0.094-0.462-0.26-0.629s-0.393-0.26-0.629-0.26-0.462 0.094-0.629 0.26c-0.167 0.167-0.26 0.393-0.26 0.629s0.094 0.462 0.26 0.629c0.167 0.167 0.393 0.26 0.629 0.26s0.462-0.094 0.629-0.26c0.167-0.167 0.26-0.393 0.26-0.629z"></path>
<path  d="M28.444 28.444c0 0.943-0.375 1.847-1.041 2.514s-1.571 1.041-2.514 1.041c-0.943 0-1.847-0.375-2.514-1.041s-1.041-1.571-1.041-2.514c0-0.943 0.375-1.847 1.041-2.514s1.571-1.041 2.514-1.041c0.943 0 1.847 0.375 2.514 1.041s1.041 1.571 1.041 2.514zM25.778 28.444c0-0.236-0.094-0.462-0.26-0.629s-0.393-0.26-0.629-0.26-0.462 0.094-0.629 0.26c-0.167 0.167-0.26 0.393-0.26 0.629s0.094 0.462 0.26 0.629c0.167 0.167 0.393 0.26 0.629 0.26s0.462-0.094 0.629-0.26c0.167-0.167 0.26-0.393 0.26-0.629z"></path>
</symbol>
<symbol id="heart" viewBox="0 0 32 32">
<path  d="M28.434 4.739c-1.618-1.618-3.763-2.602-6.045-2.773s-4.549 0.483-6.39 1.843c-1.939-1.442-4.352-2.096-6.754-1.83s-4.613 1.432-6.19 3.263c-1.576 1.831-2.4 4.192-2.306 6.606s1.1 4.703 2.815 6.406l11.352 11.352c0.142 0.143 0.31 0.256 0.496 0.334s0.385 0.117 0.586 0.117 0.4-0.040 0.586-0.117c0.186-0.077 0.354-0.191 0.496-0.334l11.352-11.352c0.888-0.887 1.592-1.941 2.073-3.1s0.728-2.402 0.728-3.658c0-1.255-0.248-2.498-0.728-3.658s-1.185-2.213-2.073-3.1zM26.286 16.107l-10.286 10.271-10.286-10.271c-0.906-0.91-1.524-2.068-1.775-3.327s-0.124-2.566 0.364-3.754c0.488-1.188 1.316-2.206 2.381-2.925s2.317-1.108 3.602-1.118c1.716 0.004 3.36 0.689 4.571 1.905 0.142 0.143 0.31 0.256 0.496 0.334s0.385 0.117 0.586 0.117c0.201 0 0.4-0.040 0.586-0.117s0.354-0.191 0.496-0.334c1.247-1.081 2.858-1.647 4.507-1.585s3.212 0.749 4.374 1.92 1.835 2.741 1.884 4.39c0.049 1.649-0.531 3.255-1.622 4.493h0.122z"></path>
</symbol>
<symbol id="logo" viewBox="0 0 107 32">
<path  d="M24.315 2.258v28.599h-5.634v-11.618h-12.784v11.618h-5.634v-28.599h5.634v11.541h12.784v-11.541h5.634zM39.143 31.323c-2.072 0-3.834-0.389-5.285-1.166-1.425-0.777-2.513-1.852-3.264-3.225s-1.127-2.953-1.127-4.741c0-1.71 0.44-3.251 1.321-4.624s2.059-2.461 3.536-3.264c1.477-0.829 3.121-1.243 4.935-1.243 2.435 0 4.43 0.712 5.984 2.137 1.58 1.399 2.603 3.432 3.070 6.101l-13.211 4.197-1.205-2.953 9.559-3.225-1.127 0.505c-0.207-0.674-0.583-1.256-1.127-1.749-0.518-0.518-1.308-0.777-2.37-0.777-0.803 0-1.515 0.194-2.137 0.583-0.596 0.363-1.062 0.894-1.399 1.593-0.311 0.674-0.466 1.477-0.466 2.409 0 1.062 0.194 1.956 0.583 2.681 0.389 0.699 0.92 1.23 1.593 1.593s1.425 0.544 2.254 0.544c0.596 0 1.166-0.104 1.71-0.311 0.57-0.207 1.127-0.479 1.671-0.816l2.409 4.041c-0.907 0.518-1.891 0.933-2.953 1.243-1.036 0.311-2.021 0.466-2.953 0.466zM52.267 30.857v-30.658h5.44v30.658h-5.44zM62.020 19.317l7.694 11.541h-6.334l-4.935-8.432 3.575-3.109zM56.075 26.155l-0.544-5.168 10.258-7.538 3.303 2.914-13.017 9.792zM75.072 6.416h5.44v7.383h4.119v4.235h-4.119v12.823h-5.44v-12.823h-2.642v-4.235h2.642v-7.383zM87.45 22.153c0-1.736 0.401-3.29 1.205-4.663 0.829-1.373 1.982-2.448 3.458-3.225 1.477-0.803 3.173-1.205 5.090-1.205 1.943 0 3.627 0.402 5.051 1.205 1.425 0.777 2.513 1.852 3.264 3.225 0.777 1.373 1.166 2.927 1.166 4.663s-0.389 3.303-1.166 4.702c-0.751 1.373-1.839 2.461-3.264 3.264s-3.135 1.205-5.129 1.205c-1.865 0-3.536-0.363-5.013-1.088-1.451-0.725-2.591-1.774-3.419-3.147s-1.243-3.018-1.243-4.935zM92.929 22.192c0 0.881 0.181 1.684 0.544 2.409 0.363 0.699 0.855 1.256 1.477 1.671s1.321 0.622 2.098 0.622c0.855 0 1.593-0.207 2.215-0.622s1.101-0.971 1.438-1.671c0.337-0.725 0.505-1.528 0.505-2.409 0-0.907-0.168-1.71-0.505-2.409s-0.816-1.256-1.438-1.671-1.36-0.622-2.215-0.622c-0.777 0-1.477 0.207-2.098 0.622s-1.114 0.971-1.477 1.671c-0.363 0.699-0.544 1.503-0.544 2.409z"></path>
</symbol>
<symbol id="mail" viewBox="0 0 37 32">
<path  d="M31.111 1.778h-24.889c-1.414 0-2.771 0.562-3.771 1.562s-1.562 2.357-1.562 3.771v17.778c0 1.415 0.562 2.771 1.562 3.771s2.357 1.562 3.771 1.562h24.889c1.414 0 2.771-0.562 3.771-1.562s1.562-2.357 1.562-3.771v-17.778c0-1.415-0.562-2.771-1.562-3.771s-2.357-1.562-3.771-1.562v0zM6.222 5.333h24.889c0.471 0 0.924 0.187 1.257 0.521s0.521 0.786 0.521 1.257l-14.222 8.676-14.222-8.676c0-0.472 0.187-0.924 0.521-1.257s0.786-0.521 1.257-0.521v0zM32.889 24.889c0 0.471-0.187 0.924-0.521 1.257s-0.786 0.521-1.257 0.521h-24.889c-0.471 0-0.924-0.187-1.257-0.521s-0.521-0.786-0.521-1.257v-13.724l13.298 8.124c0.27 0.156 0.577 0.238 0.889 0.238s0.619-0.082 0.889-0.238l13.369-8.124v13.724z"></path>
</symbol>
<symbol id="phone" viewBox="0 0 32 32">
<path  d="M22.088 29.332h0.037c0.704 0 1.369-0.277 1.873-0.781l3.616-3.616c0.124-0.124 0.222-0.271 0.289-0.432s0.102-0.335 0.102-0.51c0-0.175-0.035-0.348-0.102-0.51s-0.165-0.309-0.289-0.432l-5.333-5.333c-0.124-0.124-0.271-0.222-0.432-0.289s-0.335-0.102-0.51-0.102c-0.175 0-0.349 0.035-0.51 0.102s-0.309 0.165-0.432 0.289l-2.125 2.125c-0.985-0.293-2.824-0.96-3.989-2.125s-1.832-3.004-2.125-3.989l2.125-2.125c0.124-0.124 0.222-0.271 0.289-0.432s0.102-0.335 0.102-0.51c0-0.175-0.035-0.348-0.102-0.51s-0.165-0.309-0.289-0.432l-5.333-5.333c-0.255-0.241-0.592-0.375-0.943-0.375s-0.688 0.134-0.943 0.375l-3.615 3.616c-0.507 0.507-0.792 1.203-0.781 1.913 0.031 1.899 0.533 8.493 5.731 13.691s11.792 5.699 13.691 5.729v0zM8.007 7.211l3.448 3.448-1.724 1.724c-0.157 0.156-0.272 0.35-0.335 0.562s-0.072 0.437-0.026 0.654c0.032 0.153 0.815 3.789 3.028 6.003s5.849 2.996 6.003 3.028c0.217 0.046 0.442 0.037 0.654-0.026s0.406-0.178 0.562-0.336l1.724-1.724 3.448 3.448-2.675 2.673c-1.664-0.028-7.357-0.475-11.831-4.949-4.488-4.488-4.923-10.201-4.949-11.832l2.673-2.673zM26.665 14.665h2.667c0-6.84-5.164-11.999-12.013-11.999v2.667c5.416 0 9.347 3.924 9.347 9.332v0z"></path>
<path  d="M17.332 10.667c2.804 0 4 1.196 4 4h2.667c0-4.3-2.367-6.667-6.667-6.667v2.667z"></path>
</symbol>
<symbol id="search" viewBox="0 0 32 32">
<path d="M31.558 29.394l-5.653-5.608c2.194-2.736 3.257-6.209 2.97-9.705s-1.903-6.748-4.515-9.089c-2.612-2.341-6.022-3.592-9.528-3.496s-6.842 1.532-9.322 4.012c-2.48 2.48-3.916 5.816-4.012 9.322s1.155 6.916 3.496 9.528c2.341 2.612 5.593 4.228 9.089 4.515s6.969-0.775 9.705-2.97l5.608 5.608c0.142 0.143 0.31 0.256 0.496 0.334s0.385 0.117 0.586 0.117 0.4-0.040 0.586-0.117c0.186-0.077 0.354-0.191 0.496-0.334 0.275-0.284 0.428-0.664 0.428-1.059s-0.154-0.775-0.428-1.059zM15.238 25.905c-2.11 0-4.172-0.626-5.926-1.798s-3.121-2.838-3.929-4.787c-0.807-1.949-1.019-4.094-0.607-6.163s1.427-3.97 2.919-5.462c1.492-1.492 3.392-2.508 5.462-2.919s4.214-0.2 6.163 0.607c1.949 0.807 3.615 2.175 4.787 3.929s1.798 3.816 1.798 5.926c0 2.829-1.124 5.542-3.124 7.543s-4.714 3.124-7.543 3.124z"></path>
</symbol>
<symbol id="search-plus" viewBox="0 0 32 32">
<path  d="M20 13.333h-4v-4c0-0.354-0.14-0.693-0.39-0.943s-0.589-0.391-0.943-0.391c-0.354 0-0.693 0.14-0.943 0.391s-0.391 0.589-0.391 0.943v4h-4c-0.354 0-0.693 0.14-0.943 0.391s-0.391 0.589-0.391 0.943c0 0.354 0.14 0.693 0.391 0.943s0.589 0.391 0.943 0.391h4v4c0 0.354 0.14 0.693 0.391 0.943s0.589 0.391 0.943 0.391c0.354 0 0.693-0.14 0.943-0.391s0.39-0.589 0.39-0.943v-4h4c0.354 0 0.693-0.14 0.943-0.391s0.39-0.589 0.39-0.943c0-0.354-0.14-0.693-0.39-0.943s-0.589-0.391-0.943-0.391zM28.947 27.053l-4.947-4.907c1.92-2.394 2.85-5.433 2.598-8.492s-1.666-5.905-3.951-7.953c-2.286-2.048-5.269-3.143-8.337-3.059s-5.987 1.34-8.157 3.51c-2.17 2.17-3.426 5.089-3.51 8.157s1.011 6.051 3.059 8.337c2.048 2.285 4.894 3.699 7.953 3.951s6.097-0.678 8.492-2.598l4.907 4.907c0.124 0.125 0.271 0.224 0.434 0.292s0.337 0.103 0.513 0.103 0.35-0.035 0.513-0.103c0.162-0.068 0.31-0.167 0.434-0.292 0.24-0.249 0.375-0.581 0.375-0.927s-0.134-0.678-0.375-0.927zM14.667 24c-1.846 0-3.65-0.547-5.185-1.573s-2.731-2.483-3.438-4.189-0.891-3.582-0.531-5.393c0.36-1.81 1.249-3.474 2.554-4.779s2.968-2.194 4.779-2.554c1.81-0.36 3.687-0.175 5.393 0.531s3.163 1.903 4.189 3.438c1.026 1.535 1.573 3.339 1.573 5.185 0 2.475-0.983 4.849-2.734 6.6s-4.124 2.734-6.6 2.734z"></path>
</symbol>
<symbol id="user" viewBox="0 0 32 32">
<path  d="M16 4c0.989 0 1.956 0.293 2.778 0.843s1.463 1.33 1.842 2.244c0.378 0.914 0.477 1.919 0.285 2.889s-0.669 1.861-1.368 2.56-1.59 1.175-2.56 1.368c-0.97 0.193-1.975 0.094-2.889-0.285s-1.695-1.019-2.244-1.842c-0.549-0.822-0.843-1.789-0.843-2.778 0-1.326 0.527-2.598 1.464-3.536s2.209-1.464 3.536-1.464zM16 2c-1.384 0-2.738 0.411-3.889 1.18s-2.048 1.862-2.578 3.141c-0.53 1.279-0.668 2.687-0.398 4.044s0.937 2.605 1.916 3.584c0.979 0.979 2.226 1.646 3.584 1.916s2.765 0.131 4.044-0.398c1.279-0.53 2.372-1.427 3.141-2.578s1.18-2.505 1.18-3.889c0-1.857-0.737-3.637-2.050-4.95s-3.093-2.050-4.95-2.050z"></path>
<path  d="M26 30h-2v-5c0-0.657-0.129-1.307-0.381-1.913s-0.62-1.158-1.084-1.622c-0.464-0.464-1.016-0.833-1.622-1.084s-1.257-0.381-1.913-0.381h-6c-1.326 0-2.598 0.527-3.536 1.464s-1.464 2.21-1.464 3.536v5h-2v-5c0-1.857 0.737-3.637 2.050-4.95s3.093-2.050 4.95-2.050h6c1.857 0 3.637 0.738 4.95 2.050s2.050 3.093 2.050 4.95v5z"></path>
</symbol>
</defs>
</svg>
